<?xml version="1.0" encoding="utf-8"?>
<svg viewBox="0 0 100 100" preserveAspectRatio="none" xmlns="http://www.w3.org/2000/svg">
  <defs>
    <linearGradient id="paint0_linear_76_617" x1="1317.03" y1="446.592" x2="396.83" y2="-149.647" gradientUnits="userSpaceOnUse" gradientTransform="matrix(0.08681, 0, 0, 0.087979, 73.978704, -0.048664)">
      <stop stopColor="#EFB467"/>
      <stop offset="1" stopColor="#DE8667"/>
    </linearGradient>
  </defs>
  <path fillRule="evenodd" clipRule="evenodd" d="M 160.593 14.879 C 166.638 18.652 172.878 23.459 173.884 31.103 C 174.886 38.711 169.178 46.67 165.805 54.489 C 162.544 62.051 161.251 71.375 154.462 76.134 C 147.655 80.905 139.745 74.517 132.4 77.903 C 121.308 83.016 113.934 99.74 102.697 99.997 C 92.51 100.229 89.377 87.325 84.668 78.991 C 79.817 70.407 71.107 61.766 74.954 50.9 C 78.972 39.557 94.809 37.178 102.838 27.685 C 109.6 19.689 108.09 4.897 117.247 0.893 C 126.658 -3.223 132.864 8.07 141.396 10.823 C 147.655 12.843 155.137 11.473 160.593 14.879 Z" fill="url(#paint0_linear_76_617)"/>
</svg>