<?xml version="1.0" encoding="utf-8"?>
<svg viewBox="0 0 100 100" preserveAspectRatio="none" xmlns="http://www.w3.org/2000/svg">
  <defs>
    <linearGradient id="paint0_linear_76_557" x1="1097.27" y1="624.188" x2="1176.79" y2="-469.403" gradientUnits="userSpaceOnUse" gradientTransform="matrix(0.084322, 0, 0, 0.10387, 51.957317, -3.363071)">
      <stop stop-color="#EFB467"/>
      <stop offset="1" stop-color="#DE8667"/>
    </linearGradient>
  </defs>
  <path fill-rule="evenodd" clip-rule="evenodd" d="M 151.985 18.556 C 151.642 27.04 150.523 36.317 144.573 41.716 C 138.65 47.091 129.295 45.63 121.15 46.538 C 113.272 47.417 104.834 51.361 97.661 46.946 C 90.47 42.52 92.137 30.594 85.858 24.816 C 76.375 16.09 58.878 17.864 53.407 6.225 C 48.447 -4.326 57.822 -14.947 62.62 -24.622 C 67.562 -34.589 70.747 -48.636 81.674 -50.777 C 93.082 -53.013 102.487 -37.756 114.216 -34.733 C 124.096 -32.186 135.815 -42.178 143.461 -34.852 C 151.32 -27.322 144.736 -14.394 146.414 -3.882 C 147.645 3.831 152.294 10.898 151.985 18.556 Z" fill="url(#paint0_linear_76_557)"/>
</svg>